<svg xmlns="http://www.w3.org/2000/svg" width="512" height="512" viewBox="0 0 512 512" version="1.1">
	<path d="M 0 256.002 L 0 512.004 256.250 511.752 L 512.500 511.500 512.752 255.750 L 513.004 0 256.502 0 L 0 0 0 256.002 M 0.492 256.500 C 0.492 397.300, 0.608 454.751, 0.750 384.170 C 0.892 313.588, 0.892 198.388, 0.750 128.170 C 0.608 57.951, 0.492 115.700, 0.492 256.500 M 213.500 34.964 C 199.185 38.755, 189.306 44.642, 179.290 55.350 C 172.450 62.662, 167.177 71.428, 164.132 80.552 C 161.682 87.892, 159.870 101.425, 160.674 106.379 C 161.206 109.655, 161.564 110, 164.431 110 C 168.330 110, 170 111.549, 170 115.165 C 170 118.230, 167.659 120, 163.603 120 C 158.473 120, 149.699 124.205, 144.976 128.928 C 130.917 142.988, 135.804 166.713, 154.500 175.160 C 159.444 177.394, 159.921 177.416, 197 177.147 L 234.500 176.874 241.241 173.793 C 249.403 170.063, 256.908 162.566, 260.804 154.253 C 263.106 149.340, 263.500 147.185, 263.500 139.500 C 263.500 131.392, 263.206 129.969, 260.532 125.141 C 252.894 111.351, 236.714 105.352, 224.105 111.635 C 210.882 118.224, 207.299 134.874, 217.097 144.203 C 223.710 150.500, 232.512 150.598, 237.924 144.434 C 239.879 142.207, 241 139.850, 241 137.965 C 241 134.810, 244.009 131, 246.500 131 C 247.325 131, 248.950 131.950, 250.110 133.110 C 255.367 138.367, 247.827 153.251, 237.782 157.447 C 232.118 159.813, 222.493 159.443, 216.444 156.626 C 194.657 146.481, 196.564 113.704, 219.622 102.008 C 226.148 98.698, 238.492 98.016, 246.190 100.541 C 261.100 105.431, 271.519 117.518, 273.898 132.684 C 274.889 139.006, 274.009 149.217, 272.021 154.444 C 271.374 156.146, 271 176, 271 208.615 C 271 265.273, 270.944 264.739, 277.055 266.869 C 280.879 268.202, 286.231 266.306, 288.006 262.988 C 288.800 261.504, 289.348 249.562, 289.718 225.653 C 290.050 204.230, 290.659 190.001, 291.278 189.221 C 291.938 188.390, 294.253 188.037, 297.896 188.214 C 300.978 188.363, 304.502 188.124, 305.726 187.683 C 307.535 187.031, 308.745 187.641, 312.178 190.940 C 315.800 194.421, 317.025 195, 320.767 195 C 327.364 195, 329 196.274, 329 201.410 C 329 213.429, 334.205 219.229, 342.067 215.972 C 347.428 213.752, 348 211.206, 348 189.573 L 348 170.046 350.453 168.439 C 352.727 166.949, 353.133 166.965, 356.011 168.665 C 359.105 170.493, 359.122 170.491, 361.128 168 C 370.596 156.247, 370.504 140.477, 360.903 129.543 C 356.876 124.956, 346.969 120.002, 341.821 120.001 C 337.653 120, 335 117.911, 335 114.629 C 335 111.382, 336.884 110, 341.308 110 C 345.064 110, 345.191 109.893, 344.561 107.250 C 341.283 93.511, 325.089 78.510, 311.250 76.394 C 306.447 75.660, 306.498 75.538, 308.499 83 C 309.310 86.025, 310.270 91.993, 310.631 96.261 C 311.196 102.921, 311.034 104.305, 309.490 106.011 C 307.424 108.294, 305.111 108.546, 302.714 106.750 C 301.527 105.860, 300.746 102.810, 300.003 96.159 C 298.054 78.711, 292.020 66.158, 279.500 53.506 C 270.246 44.154, 259.862 38.162, 247.377 34.968 C 237.402 32.417, 223.123 32.416, 213.500 34.964 M 382.289 121.250 C 379.255 124.565, 378.685 127.490, 380.418 130.842 C 383.287 136.389, 390.835 136.929, 394.399 131.841 C 399.876 124.021, 388.699 114.247, 382.289 121.250 M 97.635 137.073 C 90.672 142.549, 98.246 153.150, 106.114 148.939 C 110.910 146.372, 110.459 138.441, 105.385 136.130 C 101.914 134.548, 100.649 134.702, 97.635 137.073 M 403.655 145.829 C 400.067 149.793, 402.825 156, 408.174 156 C 413.148 156, 415.961 149.104, 412.429 145.571 C 410.307 143.450, 405.685 143.585, 403.655 145.829 M 400.797 158.749 C 398.562 159.247, 397.513 162.708, 399.040 164.548 C 401.665 167.711, 406.779 165.031, 405.545 161.140 C 404.850 158.951, 403.329 158.184, 400.797 158.749 M 257.980 175.524 C 257.284 176.362, 256.985 177.318, 257.314 177.648 C 258.338 178.672, 261 177.143, 261 175.531 C 261 173.573, 259.602 173.569, 257.980 175.524 M 108.360 184.460 C 100.959 189.645, 104.693 201, 113.799 201 C 118.221 201, 123 196.405, 123 192.154 C 123 187.471, 118.669 183, 114.134 183 C 112.105 183, 109.507 183.657, 108.360 184.460 M 360 192 L 360 198 372.843 198 C 384.357 198, 386.141 198.241, 390.093 200.327 C 392.517 201.606, 395.850 204.570, 397.500 206.912 L 400.500 211.170 400.787 257.900 L 401.074 304.630 398.253 310.031 C 395.959 314.421, 394.434 315.952, 390.101 318.216 C 385.107 320.825, 383.992 321, 372.386 321 L 360 321 360 328 L 360 335 377.750 334.978 C 392.753 334.959, 396.120 334.674, 399.509 333.135 C 404.550 330.845, 409.575 325.193, 410.940 320.277 C 412.375 315.108, 412.375 205.892, 410.940 200.723 C 409.575 195.807, 404.550 190.155, 399.509 187.865 C 396.120 186.326, 392.753 186.041, 377.750 186.022 L 360 186 360 192 M 155.935 188 C 155.900 188.275, 155.928 249.148, 155.996 323.274 C 156.090 424.566, 156.417 458.894, 157.311 461.453 C 159.526 467.794, 164.457 473.550, 170.067 476.346 L 175.393 479 252.500 479 L 329.607 479 334.805 476.410 C 337.664 474.985, 341.340 472.198, 342.974 470.216 C 349.307 462.533, 349 469.089, 349 341.420 L 349 225.196 344.309 226.607 C 332.834 230.061, 320.571 222.246, 319.264 210.646 C 318.797 206.505, 318.528 206.175, 314.687 205.024 C 312.443 204.352, 309.190 202.721, 307.459 201.401 C 305.728 200.080, 303.341 199, 302.156 199 C 300.028 199, 300 199.234, 300 217 C 300 226.900, 300.115 235, 300.257 235 C 300.398 235, 302.003 234.573, 303.824 234.050 C 312.922 231.441, 316.738 240.835, 307.978 244.277 L 304 245.839 304 339.695 L 304 433.552 308.250 435.526 C 313.072 437.766, 314.256 440.955, 311.425 444.082 C 307.619 448.289, 298.713 445.077, 294.554 437.997 C 292.535 434.559, 292.495 433.147, 292.227 354.750 C 292.077 310.887, 291.791 275, 291.591 275 C 291.392 275, 289.940 275.672, 288.364 276.494 C 280.799 280.439, 268.904 276.927, 263.513 269.156 L 260.500 264.812 260.500 226.656 L 260.500 188.500 208.250 188 C 179.512 187.725, 155.971 187.725, 155.935 188 M 123.604 226.155 C 120.862 230.070, 125.438 234.162, 128.800 230.800 C 130.430 229.170, 130.308 227.450, 128.429 225.571 C 126.333 223.476, 125.402 223.588, 123.604 226.155 M 193.968 233.951 C 189.772 235.209, 187.003 237.313, 184.693 241 L 182.500 244.500 182.500 339.500 C 182.500 433.532, 182.521 434.536, 184.554 437.997 C 188.713 445.077, 197.619 448.289, 201.425 444.082 C 204.256 440.955, 203.072 437.766, 198.250 435.526 L 194 433.552 194 339.725 L 194 245.898 197.750 244.337 C 201.757 242.668, 202.960 241.428, 202.985 238.941 C 203.023 235.084, 198.514 232.588, 193.968 233.951 M 248.968 233.951 C 244.772 235.209, 242.003 237.313, 239.693 241 L 237.500 244.500 237.500 339.500 C 237.500 433.532, 237.521 434.536, 239.554 437.997 C 243.713 445.077, 252.619 448.289, 256.425 444.082 C 259.256 440.955, 258.072 437.766, 253.250 435.526 L 249 433.552 249 339.725 L 249 245.898 252.750 244.337 C 256.757 242.668, 257.960 241.428, 257.985 238.941 C 258.023 235.084, 253.514 232.588, 248.968 233.951" stroke="none" fill="black" fill-rule="evenodd"/>
</svg>